<?xml version="1.0" encoding="UTF-8" standalone="no"?>
<!-- Created with Inkscape (http://www.inkscape.org/) -->
<svg xmlns:svg="http://www.w3.org/2000/svg" xmlns="http://www.w3.org/2000/svg" version="1.0" width="909" height="655" id="svg2">
  <defs id="defs4">
    <marker refX="0" refY="0" orient="auto" id="DotL" style="overflow:visible">
      <path d="M -2.5,-1 C -2.5,1.76 -4.74,4 -7.5,4 C -10.26,4 -12.5,1.76 -12.5,-1 C -12.5,-3.76 -10.26,-6 -7.5,-6 C -4.74,-6 -2.5,-3.76 -2.5,-1 z" transform="matrix(0.8,0,0,0.8,5.92,0.8)" id="path3395" style="fill-rule:evenodd;stroke:#000000;stroke-width:1pt;marker-start:none;marker-end:none"/>
    </marker>
  </defs>
  <g transform="translate(274.5,-307.71933)" id="layer1">
    <path d="M 584.67272,971.47389 L 195.40532,297.24302" id="path3313" style="fill:none;fill-opacity:1;fill-rule:evenodd;stroke:#666666;stroke-width:2;stroke-linecap:square;stroke-linejoin:bevel;stroke-miterlimit:4;stroke-dasharray:none;stroke-dashoffset:0;stroke-opacity:1"/>
    <path d="M 84.356169,971.47389 L -310.31177,287.88901" id="path3318" style="fill:none;fill-opacity:1;fill-rule:evenodd;stroke:#666666;stroke-width:2;stroke-linecap:square;stroke-linejoin:bevel;stroke-miterlimit:4;stroke-dasharray:none;stroke-dashoffset:0;stroke-opacity:1"/>
    <path d="M 334.51443,971.47389 L -56.249418,294.6511" id="path3320" style="fill:none;fill-opacity:1;fill-rule:evenodd;stroke:#666666;stroke-width:2;stroke-linecap:square;stroke-linejoin:bevel;stroke-miterlimit:4;stroke-dasharray:none;stroke-dashoffset:0;stroke-opacity:1"/>
    <path d="M -286.88081,851.46516 L 654.06094,851.46516" id="path3324" style="fill:none;fill-rule:evenodd;stroke:#666666;stroke-width:2;stroke-linecap:butt;stroke-linejoin:miter;stroke-miterlimit:4;stroke-dasharray:none;stroke-opacity:1"/>
    <path d="M -286.88081,634.8214 L 654.06094,634.8214" id="path3326" style="fill:none;fill-rule:evenodd;stroke:#666666;stroke-width:2;stroke-linecap:butt;stroke-linejoin:miter;stroke-miterlimit:4;stroke-dasharray:none;stroke-opacity:1"/>
    <path d="M -286.88081,418.17767 L 654.06094,418.17767" id="path3322" style="fill:none;fill-rule:evenodd;stroke:#666666;stroke-width:2;stroke-linecap:butt;stroke-linejoin:miter;stroke-miterlimit:4;stroke-dasharray:none;stroke-opacity:1"/>
    <path d="M 539.72696,110.45833 L 664.80629,327.10207 L 539.72698,543.74582 L 289.56833,543.74583 L 164.489,327.10209 L 289.56831,110.45835 L 539.72696,110.45833 z" transform="translate(-274.5,307.71933)" id="path2541" style="opacity:1;fill:none;fill-opacity:1;fill-rule:evenodd;stroke:#ff0000;stroke-width:5.5;stroke-linecap:square;stroke-linejoin:bevel;stroke-miterlimit:4;stroke-dasharray:none;stroke-dashoffset:0;stroke-opacity:1"/>
    <path d="M 578.52182,109.60719 A 40.039581,40.039581 0 1 1 498.44266,109.60719 A 40.039581,40.039581 0 1 1 578.52182,109.60719 z" transform="translate(-648.49324,525.65423)" id="path5167" style="opacity:1;fill:#ccffff;fill-opacity:1;fill-rule:evenodd;stroke:#ff0000;stroke-width:2;stroke-linecap:square;stroke-linejoin:bevel;stroke-miterlimit:4;stroke-dasharray:none;stroke-dashoffset:0;stroke-opacity:1"/>
    <path d="M 578.52182,109.60719 A 40.039581,40.039581 0 1 1 498.44266,109.60719 A 40.039581,40.039581 0 1 1 578.52182,109.60719 z" transform="translate(-148.17595,525.65423)" id="path5169" style="opacity:1;fill:#ccffff;fill-opacity:1;fill-rule:evenodd;stroke:#ff0000;stroke-width:2;stroke-linecap:square;stroke-linejoin:bevel;stroke-miterlimit:4;stroke-dasharray:none;stroke-dashoffset:0;stroke-opacity:1"/>
    <path d="M 578.52182,109.60719 A 40.039581,40.039581 0 1 1 498.44266,109.60719 A 40.039581,40.039581 0 1 1 578.52182,109.60719 z" transform="translate(-272.87421,741.63796)" id="path5171" style="opacity:1;fill:#ccffff;fill-opacity:1;fill-rule:evenodd;stroke:#ff0000;stroke-width:2;stroke-linecap:square;stroke-linejoin:bevel;stroke-miterlimit:4;stroke-dasharray:none;stroke-dashoffset:0;stroke-opacity:1"/>
    <path d="M 578.52182,109.60719 A 40.039581,40.039581 0 1 1 498.44266,109.60719 A 40.039581,40.039581 0 1 1 578.52182,109.60719 z" transform="translate(-523.03286,741.63796)" id="path5173" style="opacity:1;fill:#ccffff;fill-opacity:1;fill-rule:evenodd;stroke:#ff0000;stroke-width:2;stroke-linecap:square;stroke-linejoin:bevel;stroke-miterlimit:4;stroke-dasharray:none;stroke-dashoffset:0;stroke-opacity:1"/>
    <path d="M 578.52182,109.60719 A 40.039581,40.039581 0 1 1 498.44266,109.60719 A 40.039581,40.039581 0 1 1 578.52182,109.60719 z" transform="matrix(0.5,0.8660254,0.8660254,-0.5,-223.85259,269.30848)" id="path5175" style="fill:#ccffff;fill-opacity:1;fill-rule:evenodd;stroke:#ff0000;stroke-width:2;stroke-linecap:square;stroke-linejoin:bevel;stroke-miterlimit:4;stroke-dasharray:none;stroke-dashoffset:0;stroke-opacity:1"/>
    <path d="M 578.52182,109.60719 A 40.039581,40.039581 0 1 1 498.44266,109.60719 A 40.039581,40.039581 0 1 1 578.52182,109.60719 z" transform="matrix(0.5,0.8660254,0.8660254,-0.5,-263.89218,199.95789)" id="path5179" style="fill:#ccffff;fill-opacity:1;fill-rule:evenodd;stroke:#ff0000;stroke-width:2;stroke-linecap:square;stroke-linejoin:bevel;stroke-miterlimit:4;stroke-dasharray:none;stroke-dashoffset:0;stroke-opacity:1"/>
    <path d="M 578.52182,109.60719 A 40.039581,40.039581 0 1 1 498.44266,109.60719 A 40.039581,40.039581 0 1 1 578.52182,109.60719 z" transform="matrix(0.5,0.8660254,0.8660254,-0.5,-183.81101,199.95443)" id="path5193" style="fill:#ccffff;fill-opacity:1;fill-rule:evenodd;stroke:#ff0000;stroke-width:2;stroke-linecap:square;stroke-linejoin:bevel;stroke-miterlimit:4;stroke-dasharray:none;stroke-dashoffset:0;stroke-opacity:1"/>
    <path d="M 578.52182,109.60719 A 40.039581,40.039581 0 1 1 498.44266,109.60719 A 40.039581,40.039581 0 1 1 578.52182,109.60719 z" transform="translate(-273.63633,308.35047)" id="path5138" style="opacity:1;fill:#ccffff;fill-opacity:1;fill-rule:evenodd;stroke:#ff0000;stroke-width:2;stroke-linecap:square;stroke-linejoin:bevel;stroke-miterlimit:4;stroke-dasharray:none;stroke-dashoffset:0;stroke-opacity:1"/>
    <path d="M 578.52182,109.60719 A 40.039581,40.039581 0 1 1 498.44266,109.60719 A 40.039581,40.039581 0 1 1 578.52182,109.60719 z" transform="translate(-523.79498,308.35047)" id="path5165" style="opacity:1;fill:#ccffff;fill-opacity:1;fill-rule:evenodd;stroke:#ff0000;stroke-width:2;stroke-linecap:square;stroke-linejoin:bevel;stroke-miterlimit:4;stroke-dasharray:none;stroke-dashoffset:0;stroke-opacity:1"/>
    <path d="M 3.9878672,402.68743 L 3.9878672,401.72194 L 17.313738,401.72194 L 17.313738,402.68743 C 15.313402,402.82302 13.804639,403.23022 12.787443,403.90903 L 11.159157,405.1803 C 10.752446,405.55287 10.227276,406.04441 9.5836462,406.65492 L -0.080520235,416.21664 L 11.770734,428.93248 C 14.381549,431.71304 16.144877,433.35788 17.060725,433.86701 C 17.738496,434.20643 18.636717,434.3927 19.755391,434.42582 L 19.755391,435.39285 L 4.2424325,435.39285 L 4.2424325,434.42582 C 4.6490943,434.3927 5.1240754,434.37614 5.667377,434.37614 C 7.0912627,434.30785 7.8032168,433.9348 7.8032416,433.25699 C 7.8032168,432.17147 6.2432301,429.95023 3.1232767,426.59328 C 2.5127145,425.94963 1.8685408,425.28838 1.1907538,424.60953 L -4.2001312,419.26987 L -5.5226287,420.3378 L -5.5226287,429.8483 C -5.5226402,431.84964 -5.2008121,433.10435 -4.5571434,433.61245 C -3.9807628,434.05328 -2.7767531,434.3244 -0.94511078,434.42582 L -0.94511078,435.39285 L -15.289242,435.39285 L -15.289242,434.42582 C -13.220645,434.29026 -11.932297,433.90065 -11.424197,433.25699 C -10.949221,432.64645 -10.711731,431.32395 -10.711724,429.2895 L -10.711724,407.26494 C -10.711731,405.33297 -11.033559,404.09533 -11.67721,403.55202 L -12.593024,403.14533 C -13.169421,402.94151 -14.06816,402.78887 -15.289242,402.68743 L -15.289242,401.72194 L -0.84421601,401.72194 L -0.84421601,402.68743 C -3.0483926,402.85717 -4.4045204,403.24729 -4.9126035,403.85781 L -5.2696157,404.67117 L -5.5226287,406.34913 C -5.5226402,406.62132 -5.5226402,406.92659 -5.5226287,407.26494 L -5.5226287,417.69281 L 3.4802889,409.50326 C 6.1242261,407.06215 7.4462049,405.31589 7.4462294,404.26449 C 7.4462049,403.45115 6.9375923,402.95962 5.9203901,402.78987 C 5.7516919,402.75576 5.5483504,402.73868 5.3103648,402.73865 C 4.8353614,402.73868 4.3945293,402.72161 3.9878672,402.68743 L 3.9878672,402.68743 z M 25.180989,404.64318 L 25.180989,404.4603 C 24.483031,404.89633 24.029443,405.21017 23.820222,405.40182 C 23.62856,405.55888 23.262282,405.95151 22.721387,406.57971 C 22.355105,406.99817 21.988827,407.2074 21.622552,407.20739 C 21.046513,407.12062 20.732409,406.81557 20.680237,406.29223 C 20.680235,405.78594 21.020427,405.43697 21.700812,405.2453 C 21.87543,405.19314 22.076138,405.14948 22.302935,405.11433 C 23.227145,404.93972 24.029443,404.65197 24.709831,404.25108 C 24.797136,404.19838 24.893231,404.13716 24.998116,404.0674 L 24.709831,403.88453 C 24.221632,403.55287 23.471508,403.29121 22.459456,403.09954 C 21.308445,402.89032 20.715373,402.48039 20.680237,401.86973 C 20.680235,401.41616 20.880943,401.11962 21.28236,400.98013 C 21.386705,400.945 21.482533,400.92744 21.569846,400.92742 C 21.936122,400.92744 22.354839,401.20667 22.826,401.76512 C 23.558552,402.56743 24.308677,403.18659 25.076376,403.6226 C 25.111507,403.64018 25.146378,403.65775 25.180989,403.67531 L 25.180989,403.33511 C 25.180983,402.61961 25.050283,401.82583 24.78889,400.95377 C 24.614263,400.34315 24.526953,399.89834 24.526958,399.61936 C 24.526953,399.16579 24.736178,398.87777 25.154636,398.7553 C 25.24194,398.72072 25.338035,398.70341 25.44292,398.7034 C 25.878934,398.70341 26.17547,398.91264 26.33253,399.33107 C 26.367127,399.43597 26.384429,399.54937 26.384437,399.67127 C 26.384429,399.91565 26.297385,400.31706 26.123304,400.87551 C 25.82676,401.71243 25.678492,402.4362 25.678499,403.04683 L 25.678499,403.72721 L 25.861372,403.6226 C 26.454437,403.29147 27.082381,402.73327 27.745203,401.94799 C 28.355835,401.23302 28.844295,400.87553 29.210583,400.87551 C 29.699298,400.87553 30.004619,401.11084 30.126545,401.58145 C 30.144102,401.68634 30.152887,401.79122 30.152898,401.89609 C 30.152887,402.40186 29.882437,402.73327 29.341549,402.89031 C 29.184486,402.92493 29.010131,402.9598 28.818484,402.99492 C 27.928866,403.13442 27.074129,403.43096 26.25427,403.88453 L 25.887725,404.09376 L 26.096951,404.22472 C 26.811931,404.66076 27.657884,404.95729 28.634813,405.11433 C 29.524944,405.25383 30.030971,405.53306 30.152898,405.95203 L 30.179251,406.26587 C 30.17924,406.80678 29.943661,407.12062 29.472515,407.20739 L 29.263289,407.23374 C 28.827259,407.23375 28.303928,406.85869 27.693296,406.10855 C 27.012905,405.2887 26.402264,404.76537 25.861372,404.53856 L 25.678499,404.4603 L 25.678499,404.64318 C 25.678492,405.65524 25.852847,406.63216 26.201564,407.57393 C 26.34104,407.94022 26.410782,408.21946 26.41079,408.41164 C 26.410782,408.86523 26.201557,409.18786 25.783112,409.37951 C 25.660658,409.43169 25.529692,409.45777 25.390215,409.45777 C 24.989325,409.45777 24.710358,409.25733 24.553311,408.85644 C 24.5006,408.734 24.474247,408.61182 24.474253,408.4899 C 24.474247,408.1758 24.570342,407.77465 24.762537,407.28645 C 25.059067,406.5012 25.207335,405.8469 25.207342,405.32356 C 25.207335,405.23626 25.207335,405.15773 25.207342,405.08798 L 25.180989,404.64318 z M 40.451319,397.48487 C 43.502987,397.4849 45.724222,398.97711 47.11503,401.96149 C 47.725558,403.28402 48.115167,404.79278 48.283857,406.48778 C 48.317991,407.03005 48.335065,407.57281 48.335081,408.11607 C 48.335065,411.87972 47.300766,414.72806 45.232179,416.66108 C 45.063491,416.82977 44.877224,416.99896 44.673377,417.16866 C 43.282571,418.22005 41.87522,418.74573 40.451319,418.74572 C 38.653834,418.74573 36.975361,418.05086 35.415894,416.66108 C 33.5853,414.82947 32.635855,411.91335 32.567557,407.91273 C 32.567557,403.57169 33.737418,400.60436 36.077143,399.01071 C 37.636609,397.99351 39.094666,397.4849 40.451319,397.48487 L 40.451319,397.48487 z M 40.451319,398.90981 C 38.044327,398.90984 36.705273,401.36805 36.434155,406.28444 C 36.400002,406.89501 36.382928,407.52211 36.382932,408.16574 C 36.382928,413.52405 37.467934,416.54209 39.637952,417.21988 C 39.909067,417.28819 40.180189,417.32234 40.451319,417.32233 C 42.316052,417.32234 43.452281,415.27082 43.86001,411.16775 C 43.961411,410.25196 44.012117,409.25129 44.012128,408.16574 C 44.012117,402.4691 43.028523,399.40035 41.061344,398.95948 C 40.858512,398.9264 40.65517,398.90984 40.451319,398.90981 L 40.451319,398.90981 z" id="text5206" style="font-size:50.86338043px;font-style:normal;font-variant:normal;font-weight:normal;font-stretch:normal;text-align:center;text-anchor:middle;fill:#000000;fill-opacity:1;stroke:none;stroke-width:1px;stroke-linecap:butt;stroke-linejoin:miter;stroke-opacity:1;font-family:FreeSerif;-inkscape-font-specification:FreeSerif"/>
    <path d="M 399.12475,630.87085 C 399.12472,635.88843 397.54922,639.82782 394.39824,642.68903 C 391.95208,644.88714 388.94597,645.98619 385.37991,645.9862 C 382.51868,645.98619 379.96814,645.09468 377.72828,643.31164 L 377.85356,650.89873 L 377.85356,650.96137 C 377.85355,654.44518 377.62513,657.1615 377.16831,659.11033 L 371.94447,659.11033 L 372.69046,654.56984 C 372.69046,654.32054 372.69046,654.09212 372.69046,653.88459 L 372.37916,633.85672 L 372.37916,633.79408 C 372.37916,627.74011 373.95529,623.15787 377.10757,620.04733 C 379.34616,617.80876 382.22762,616.68945 385.75196,616.68942 C 390.64549,616.68945 394.31533,618.57626 396.7615,622.34985 C 397.71563,623.80136 398.37937,625.45975 398.75271,627.32502 C 399.00071,628.44497 399.12472,629.62692 399.12475,630.87085 L 399.12475,630.87085 z M 393.40359,633.17147 C 393.40356,628.07166 392.42916,624.15316 390.48037,621.41593 C 389.94126,620.62884 389.31928,620.00687 388.61444,619.55001 C 387.57674,618.84517 386.41568,618.49274 385.13125,618.49271 C 379.98839,618.49274 377.41697,622.49413 377.41697,630.49691 C 377.41697,634.35406 378.30848,637.65122 380.09153,640.38841 C 381.70878,642.91681 383.78225,644.18101 386.31192,644.18101 C 390.00326,644.18101 392.26338,641.75575 393.09228,636.90522 C 393.2998,635.74353 393.40356,634.49895 393.40359,633.17147 L 393.40359,633.17147 z M 407.17191,615.26189 L 407.17191,608.22185 L 409.28421,608.22185 L 409.28421,615.26189 L 416.29202,615.26189 L 416.29202,617.37419 L 409.28421,617.37419 L 409.28421,624.41423 L 407.17191,624.41423 L 407.17191,617.37419 L 400.16409,617.37419 L 400.16409,615.26189 L 407.17191,615.26189 z" id="text5216" style="font-size:62.2001152px;font-style:normal;font-variant:normal;font-weight:normal;font-stretch:normal;text-align:center;text-anchor:middle;fill:#000000;fill-opacity:1;stroke:none;stroke-width:1px;stroke-linecap:butt;stroke-linejoin:miter;stroke-opacity:1;font-family:FreeSerif;-inkscape-font-specification:FreeSerif"/>
    <path d="M -104.12107,630.87085 C -104.1211,635.88843 -105.6966,639.82782 -108.84758,642.68903 C -111.29375,644.88714 -114.29986,645.98619 -117.86592,645.9862 C -120.72714,645.98619 -123.27769,645.09468 -125.51755,643.31164 L -125.39227,650.89873 L -125.39227,650.96137 C -125.39228,654.44518 -125.62069,657.1615 -126.07752,659.11033 L -131.30135,659.11033 L -130.55536,654.56984 C -130.55537,654.32054 -130.55537,654.09212 -130.55536,653.88459 L -130.86667,633.85672 L -130.86667,633.79408 C -130.86667,627.74011 -129.29053,623.15787 -126.13826,620.04733 C -123.89966,617.80876 -121.0182,616.68945 -117.49387,616.68942 C -112.60034,616.68945 -108.9305,618.57626 -106.48433,622.34985 C -105.5302,623.80136 -104.86646,625.45975 -104.49312,627.32502 C -104.24512,628.44497 -104.1211,629.62692 -104.12107,630.87085 L -104.12107,630.87085 z M -109.84224,633.17147 C -109.84226,628.07166 -110.81667,624.15316 -112.76546,621.41593 C -113.30457,620.62884 -113.92654,620.00687 -114.63139,619.55001 C -115.66909,618.84517 -116.83015,618.49274 -118.11458,618.49271 C -123.25744,618.49274 -125.82886,622.49413 -125.82885,630.49691 C -125.82886,634.35406 -124.93734,637.65122 -123.15429,640.38841 C -121.53704,642.91681 -119.46358,644.18101 -116.9339,644.18101 C -113.24256,644.18101 -110.98244,641.75575 -110.15354,636.90522 C -109.94603,635.74353 -109.84226,634.49895 -109.84224,633.17147 L -109.84224,633.17147 z M -85.673529,617.34653 L -102.05732,617.34653 L -102.05732,615.55454 L -85.673529,615.55454 L -85.673529,617.34653 z" id="text5222" style="font-size:62.2001152px;font-style:normal;font-variant:normal;font-weight:normal;font-stretch:normal;text-align:center;text-anchor:middle;fill:#000000;fill-opacity:1;stroke:none;stroke-width:1px;stroke-linecap:butt;stroke-linejoin:miter;stroke-opacity:1;font-family:FreeSerif;-inkscape-font-specification:FreeSerif"/>
    <path d="M 235.9172,831.85535 L 267.10883,831.85535" id="path5244" style="fill:none;fill-rule:evenodd;stroke:#000000;stroke-width:3;stroke-linecap:butt;stroke-linejoin:miter;stroke-miterlimit:4;stroke-dasharray:none;stroke-opacity:1"/>
    <path d="M 187.6477,615.72315 C 187.64767,620.74072 186.07217,624.68011 182.92119,627.54132 C 180.47503,629.73943 177.46892,630.83849 173.90286,630.83849 C 171.04163,630.83849 168.49109,629.94697 166.25123,628.16393 L 166.37651,635.75102 L 166.37651,635.81366 C 166.3765,639.29748 166.14808,642.0138 165.69126,643.96262 L 160.46742,643.96262 L 161.21341,639.42214 C 161.21341,639.17283 161.21341,638.94441 161.21341,638.73689 L 160.90211,618.70901 L 160.90211,618.64637 C 160.9021,612.59241 162.47824,608.01016 165.63052,604.89963 C 167.86911,602.66105 170.75057,601.54175 174.27491,601.54172 C 179.16844,601.54175 182.83828,603.42855 185.28445,607.20214 C 186.23858,608.65365 186.90231,610.31204 187.27566,612.17732 C 187.52366,613.29727 187.64767,614.47921 187.6477,615.72315 L 187.6477,615.72315 z M 181.92654,618.02376 C 181.92651,612.92396 180.95211,609.00545 179.00331,606.26823 C 178.4642,605.48114 177.84223,604.85916 177.13739,604.4023 C 176.09969,603.69746 174.93862,603.34503 173.65419,603.34501 C 168.51134,603.34503 165.93991,607.34643 165.93992,615.3492 C 165.93991,619.20635 166.83143,622.50352 168.61448,625.24071 C 170.23173,627.76911 172.30519,629.03331 174.83487,629.0333 C 178.52621,629.03331 180.78633,626.60805 181.61523,621.75752 C 181.82274,620.59583 181.92651,619.35125 181.92654,618.02376 L 181.92654,618.02376 z M 198.11286,587.02717 C 201.84471,587.02721 204.56102,588.85201 206.26182,592.50157 C 207.00843,594.11887 207.48488,595.96391 207.69117,598.03671 C 207.73291,598.69984 207.75379,599.36358 207.75381,600.02792 C 207.75379,604.63044 206.48896,608.11363 203.95931,610.47749 C 203.75302,610.68378 203.52524,610.89068 203.27596,611.0982 C 201.57516,612.38393 199.85413,613.02679 198.11286,613.02677 C 195.91474,613.02679 193.86216,612.17703 191.95511,610.47749 C 189.71651,608.23764 188.55544,604.67157 188.47192,599.77925 C 188.47192,594.47067 189.90253,590.84195 192.76375,588.8931 C 194.67079,587.64919 196.45383,587.02721 198.11286,587.02717 L 198.11286,587.02717 z M 198.11286,588.76971 C 195.16939,588.76975 193.53188,591.77586 193.20033,597.78805 C 193.15857,598.5347 193.13769,599.30157 193.13769,600.08866 C 193.13769,606.64126 194.46452,610.33198 197.11821,611.16084 C 197.44975,611.24438 197.7813,611.28614 198.11286,611.28612 C 200.39322,611.28614 201.7827,608.77736 202.2813,603.75977 C 202.40531,602.63986 202.46731,601.41616 202.46733,600.08866 C 202.46731,593.12231 201.26449,589.36958 198.85886,588.83046 C 198.61081,588.79 198.36215,588.76975 198.11286,588.76971 L 198.11286,588.76971 z" id="text5246" style="font-size:62.2001152px;font-style:normal;font-variant:normal;font-weight:normal;font-stretch:normal;text-align:center;text-anchor:middle;fill:#000000;fill-opacity:1;stroke:none;stroke-width:1px;stroke-linecap:butt;stroke-linejoin:miter;stroke-opacity:1;font-family:FreeSerif;-inkscape-font-specification:FreeSerif"/>
    <path d="M 119.2744,615.25314 C 119.27436,619.2343 118.21707,622.71749 116.10252,625.70272 C 113.98662,628.60569 111.3532,630.05718 108.20222,630.05718 C 104.2628,630.05718 101.75402,627.92171 100.67587,623.65076 C 100.55183,623.06992 100.44807,622.46819 100.36457,621.84558 L 100.17854,621.84558 C 99.597674,626.44934 97.6071,629.1239 94.206816,629.86926 C 93.625952,629.99454 93.003977,630.05718 92.340888,630.05718 C 88.526768,630.05718 85.54154,628.0046 83.385195,623.89943 C 81.974199,621.204 81.268703,618.3219 81.268706,615.25314 C 81.268703,610.52538 82.699309,606.77265 85.560529,603.99494 C 87.716871,601.92087 90.412308,600.84269 93.646847,600.76041 L 93.646847,602.25239 C 89.914981,602.62573 87.758632,605.0725 87.177792,609.59272 C 87.053769,610.71267 86.991761,612.5786 86.991769,615.1905 C 86.991761,621.32801 87.92504,625.2674 89.79161,627.00867 C 90.662237,627.83756 91.740412,628.25199 93.026137,628.25199 C 95.762054,628.25199 97.56534,626.48984 98.435998,622.96552 C 98.685275,621.84559 98.809923,620.68452 98.809943,619.48232 C 98.809923,618.23838 98.457491,615.70872 97.752647,611.89333 C 97.503332,610.6494 97.378684,609.67499 97.378703,608.97011 C 97.378684,606.64801 98.353091,605.48694 100.30193,605.48692 C 102.21022,605.48694 103.16438,606.64801 103.16441,608.97011 C 103.16438,609.6345 102.85308,611.68708 102.23049,615.12786 C 101.94068,616.82866 101.79578,618.28014 101.79581,619.48232 C 101.79578,623.29771 102.74931,625.93114 104.65639,627.38262 C 105.48651,627.9622 106.44067,628.25199 107.51887,628.25199 C 111.41647,628.25199 113.42729,624.35437 113.55134,616.5591 C 113.55131,616.1858 113.55131,615.56383 113.55134,614.69317 C 113.55131,610.38049 113.11599,607.37438 112.24538,605.67484 C 111.20893,603.64253 109.42589,602.50171 106.89626,602.25239 L 106.89626,600.76041 C 111.49872,600.88445 114.94015,602.93703 117.22055,606.91816 C 118.58975,609.36432 119.27436,612.14265 119.2744,615.25314 L 119.2744,615.25314 z" id="text5250" style="font-size:62.2001152px;font-style:normal;font-variant:normal;font-weight:normal;font-stretch:normal;text-align:center;text-anchor:middle;fill:#000000;fill-opacity:1;stroke:none;stroke-width:1px;stroke-linecap:butt;stroke-linejoin:miter;stroke-opacity:1;font-family:FreeSerif;-inkscape-font-specification:FreeSerif"/>
    <path d="M 143.76396,694.51104 L 143.57794,707.82119 L 138.3522,707.82119 L 138.53823,694.51104 C 133.56241,694.26174 129.5819,692.45782 126.59667,689.09928 C 124.97941,687.27448 123.88035,685.15989 123.2995,682.7555 C 123.00971,681.4698 122.86482,680.12209 122.86482,678.71234 C 122.82306,675.60185 123.46591,672.82353 124.79338,670.37736 C 126.65868,666.93532 129.31235,665.21429 132.75442,665.21427 C 134.99302,665.21429 136.5894,665.7325 137.54357,666.76889 C 137.95863,667.22575 138.35282,667.84772 138.72615,668.63482 L 137.60621,669.50609 C 136.73556,668.17864 135.86492,667.39089 134.99429,667.14283 L 133.81172,667.01755 C 130.82648,667.01758 129.08457,669.81678 128.58598,675.41518 L 128.52524,679.45834 C 128.60749,681.78047 128.83527,683.75017 129.20859,685.36742 C 130.32852,689.92816 133.4384,692.3743 138.53823,692.70585 L 138.53823,683.06491 C 138.95329,672.61599 141.69048,666.74867 146.74983,665.46293 C 147.49643,665.29718 148.28418,665.21429 149.11308,665.21427 C 152.96892,665.21429 155.58147,667.28776 156.95074,671.43466 C 157.03296,671.76623 157.11585,672.11866 157.1994,672.49195 C 157.61318,674.23325 157.82008,675.97453 157.82011,677.71579 C 157.82008,680.453 157.34363,683.00355 156.39077,685.36742 C 154.56594,689.76238 151.58008,692.60272 147.43318,693.88843 C 146.27273,694.21998 145.04966,694.42752 143.76396,694.51104 L 143.76396,694.51104 z M 155.45686,672.864 C 154.50393,668.96639 152.55512,667.01758 149.61041,667.01755 C 145.75452,667.01758 143.82658,669.96168 143.8266,675.84986 L 143.76396,692.70585 C 148.28418,692.45782 151.68448,690.3021 153.96487,686.23869 C 155.33281,683.70904 156.01679,680.84783 156.01682,677.65505 C 156.01679,676.0378 155.83014,674.44079 155.45686,672.864 L 155.45686,672.864 z" id="text5254" style="font-size:62.2001152px;font-style:normal;font-variant:normal;font-weight:normal;font-stretch:normal;text-align:center;text-anchor:middle;fill:#000000;fill-opacity:1;stroke:none;stroke-width:1px;stroke-linecap:butt;stroke-linejoin:miter;stroke-opacity:1;font-family:FreeSerif;-inkscape-font-specification:FreeSerif"/>
    <path d="M 535.06543,390.5304 L 534.29344,390.40064 C 534.20691,387.82387 533.74861,386.03436 532.91853,385.0321 C 532.00191,383.9731 530.72793,383.44359 529.09659,383.44356 C 526.83435,383.44359 525.35983,384.30252 524.67305,386.02035 L 524.41484,387.22225 C 524.386,387.42324 524.37158,387.62377 524.37159,387.82385 C 524.37158,388.9694 524.65818,389.9428 525.2314,390.74404 C 525.71809,391.4029 526.84876,392.63406 528.62344,394.43754 C 531.08575,396.92871 532.56026,398.86153 533.04698,400.23598 C 533.33356,400.98046 533.47686,401.83939 533.47688,402.81278 C 533.47686,405.59055 532.43182,407.82394 530.34174,409.51297 C 528.76716,410.77297 526.92041,411.40297 524.8015,411.40297 C 523.59916,411.40297 522.11023,411.07355 520.3347,410.41472 C 519.24683,410.04249 518.50237,409.85637 518.1013,409.85637 C 517.30004,409.85637 516.75611,410.32909 516.46951,411.27452 L 515.69621,411.27452 L 517.1563,401.69608 L 518.01611,401.78258 C 517.95844,402.18366 517.9296,402.51264 517.9296,402.76953 C 517.9296,405.31836 518.80295,407.28001 520.54965,408.65448 C 521.60867,409.48457 522.82542,409.89962 524.19989,409.89962 C 526.17551,409.89962 527.69328,409.08351 528.75319,407.45127 C 529.41114,406.50671 529.74012,405.41885 529.74014,404.18768 C 529.74012,402.84206 529.25342,401.56764 528.28004,400.36443 C 527.99342,400.02104 527.62119,399.60599 527.16334,399.11928 C 526.87673,398.80473 526.31838,398.20357 525.48829,397.31579 C 524.77265,396.51367 524.2143,395.9125 523.81324,395.51229 C 522.09537,393.67998 521.09314,392.17663 520.80654,391.00225 C 520.66411,390.48673 520.5929,389.88557 520.5929,389.19875 C 520.5929,386.62198 521.62353,384.66077 523.6848,383.31511 C 524.97275,382.45621 526.49008,382.02674 528.23679,382.02671 C 529.69687,382.02674 530.91405,382.22684 531.88834,382.627 C 532.80405,382.94247 533.46245,383.10019 533.86353,383.10016 C 534.57914,383.10019 535.15191,382.84242 535.58183,382.32686 C 535.63861,382.21242 535.70982,382.09796 535.79547,381.98346 L 536.78373,381.98346 L 535.06543,390.5304 z M 570.11168,394.0522 L 570.11168,396.88589 L 548.46581,396.88589 L 548.46581,394.0522 L 570.11168,394.0522 z M 570.11168,402.64108 L 570.11168,405.47608 L 548.46581,405.47608 L 548.46581,402.64108 L 570.11168,402.64108 z M 592.85066,398.34598 L 592.85066,388.89729 L 595.68566,388.89729 L 595.68566,398.34598 L 605.09109,398.34598 L 605.09109,401.18098 L 595.68566,401.18098 L 595.68566,410.62967 L 592.85066,410.62967 L 592.85066,401.18098 L 583.44522,401.18098 L 583.44522,398.34598 L 592.85066,398.34598 z M 618.89648,381.59681 L 619.24118,381.682 L 619.24118,407.45127 C 619.24117,408.56797 619.57015,409.28404 620.22813,409.59948 C 620.77248,409.82841 621.80355,409.95685 623.32133,409.98481 L 623.32133,410.62967 L 611.46755,410.62967 L 611.46755,409.98481 C 612.92764,409.95685 613.94385,409.77074 614.51619,409.42647 C 615.20385,409.02627 615.54768,408.09613 615.54769,406.63603 L 615.54769,387.1803 C 615.54768,385.8347 615.11822,385.16188 614.25929,385.16186 C 613.77171,385.16188 613.1273,385.31917 612.32604,385.6337 L 611.16609,386.10555 L 611.16609,385.50526 L 618.89648,381.59681 z" id="text5258" style="font-size:42.94834137px;font-style:normal;font-variant:normal;font-weight:normal;font-stretch:normal;text-align:center;text-anchor:middle;fill:#000000;fill-opacity:1;stroke:none;stroke-width:1px;stroke-linecap:butt;stroke-linejoin:miter;stroke-opacity:1;font-family:FreeSerif;-inkscape-font-specification:FreeSerif"/>
    <path d="M 545.42566,607.17411 L 544.65367,607.04435 C 544.56715,604.46758 544.10885,602.67807 543.27877,601.67581 C 542.36215,600.61681 541.08817,600.08729 539.45683,600.08727 C 537.19458,600.08729 535.72007,600.94622 535.03329,602.66406 L 534.77508,603.86595 C 534.74624,604.06695 534.73182,604.26748 534.73183,604.46756 C 534.73182,605.61311 535.01842,606.58651 535.59164,607.38775 C 536.07832,608.0466 537.209,609.27777 538.98367,611.08124 C 541.44599,613.57242 542.9205,615.50524 543.40722,616.87969 C 543.6938,617.62416 543.8371,618.4831 543.83712,619.45648 C 543.8371,622.23426 542.79205,624.46765 540.70197,626.15668 C 539.1274,627.41668 537.28065,628.04668 535.16173,628.04668 C 533.95939,628.04668 532.47046,627.71726 530.69494,627.05843 C 529.60707,626.68619 528.8626,626.50008 528.46154,626.50008 C 527.66028,626.50008 527.11634,626.97279 526.82974,627.91823 L 526.05644,627.91823 L 527.51654,618.33979 L 528.37635,618.42629 C 528.31867,618.82737 528.28984,619.15635 528.28984,619.41323 C 528.28984,621.96207 529.16319,623.92372 530.90989,625.29818 C 531.96891,626.12828 533.18566,626.54333 534.56013,626.54333 C 536.53575,626.54333 538.05352,625.72721 539.11343,624.09498 C 539.77138,623.15042 540.10036,622.06256 540.10037,620.83139 C 540.10036,619.48576 539.61366,618.21135 538.64028,617.00814 C 538.35366,616.66475 537.98143,616.2497 537.52358,615.76299 C 537.23696,615.44844 536.67861,614.84727 535.84853,613.9595 C 535.13289,613.15737 534.57454,612.55621 534.17348,612.156 C 532.45561,610.32369 531.45338,608.82034 531.16678,607.64595 C 531.02435,607.13044 530.95314,606.52927 530.95314,605.84246 C 530.95314,603.26569 531.98377,601.30448 534.04503,599.95882 C 535.33298,599.09991 536.85031,598.67045 538.59702,598.67042 C 540.05711,598.67045 541.27429,598.87055 542.24858,599.27071 C 543.16429,599.58618 543.82268,599.74389 544.22377,599.74387 C 544.93938,599.74389 545.51215,599.48613 545.94207,598.97057 C 545.99885,598.85613 546.07006,598.74166 546.15571,598.62717 L 547.14396,598.62717 L 545.42566,607.17411 z M 580.47192,610.6959 L 580.47192,613.52959 L 558.82605,613.52959 L 558.82605,610.6959 L 580.47192,610.6959 z M 580.47192,619.28479 L 580.47192,622.11979 L 558.82605,622.11979 L 558.82605,619.28479 L 580.47192,619.28479 z M 603.42585,598.24052 C 606.43253,598.24055 608.82321,599.78671 610.59788,602.87901 C 612.1733,605.59913 612.96102,609.00646 612.96104,613.101 C 612.96102,617.30917 612.10165,620.83052 610.38293,623.66508 C 609.89621,624.46721 609.38112,625.12605 608.83764,625.64158 C 607.31986,627.13051 605.4587,627.87498 603.25415,627.87498 C 600.70618,627.87498 598.61608,626.90158 596.98386,624.95478 C 595.40929,623.09362 594.34983,620.25863 593.80546,616.44979 C 593.63332,615.21863 593.54725,614.0163 593.54725,612.8428 C 593.54725,608.80592 594.3922,605.35578 596.08211,602.49236 C 596.5688,601.69025 597.09832,601.01744 597.67065,600.47392 C 599.24521,598.98501 601.1636,598.24055 603.42585,598.24052 L 603.42585,598.24052 z M 603.2974,599.35722 C 599.77516,599.35724 597.89958,603.4802 597.67065,611.7261 C 597.67065,612.21281 597.67065,612.71393 597.67065,613.22945 C 597.67065,622.24867 599.53181,626.75828 603.25415,626.75828 C 606.97646,626.75828 608.83762,622.23426 608.83764,613.18619 C 608.83762,605.02593 607.36311,600.47351 604.4141,599.52892 L 603.34065,599.35722 L 603.2974,599.35722 z" id="text5280" style="font-size:42.94834137px;font-style:normal;font-variant:normal;font-weight:normal;font-stretch:normal;text-align:center;text-anchor:middle;fill:#000000;fill-opacity:1;stroke:none;stroke-width:1px;stroke-linecap:butt;stroke-linejoin:miter;stroke-opacity:1;font-family:FreeSerif;-inkscape-font-specification:FreeSerif"/>
    <path d="M 533.51358,823.81791 L 532.74159,823.68815 C 532.65507,821.11138 532.19677,819.32186 531.36669,818.31961 C 530.45007,817.26061 529.17609,816.73109 527.54475,816.73106 C 525.2825,816.73109 523.80799,817.59002 523.1212,819.30786 L 522.863,820.50975 C 522.83416,820.71075 522.81974,820.91128 522.81975,821.11135 C 522.81974,822.25691 523.10634,823.23031 523.67955,824.03155 C 524.16624,824.6904 525.29692,825.92157 527.07159,827.72504 C 529.53391,830.21622 531.00842,832.14903 531.49513,833.52349 C 531.78172,834.26796 531.92502,835.12689 531.92504,836.10028 C 531.92502,838.87806 530.87997,841.11145 528.78989,842.80048 C 527.21532,844.06048 525.36857,844.69048 523.24965,844.69048 C 522.04731,844.69048 520.55838,844.36106 518.78286,843.70222 C 517.69499,843.32999 516.95052,843.14388 516.54946,843.14387 C 515.74819,843.14388 515.20426,843.61659 514.91766,844.56203 L 514.14436,844.56203 L 515.60446,834.98358 L 516.46426,835.07009 C 516.40659,835.47117 516.37776,835.80015 516.37776,836.05703 C 516.37776,838.60587 517.2511,840.56752 518.99781,841.94198 C 520.05683,842.77208 521.27358,843.18713 522.64805,843.18713 C 524.62367,843.18713 526.14143,842.37101 527.20135,840.73878 C 527.8593,839.79422 528.18828,838.70636 528.18829,837.47519 C 528.18828,836.12956 527.70158,834.85515 526.72819,833.65193 C 526.44158,833.30855 526.06935,832.8935 525.6115,832.40679 C 525.32488,832.09224 524.76653,831.49107 523.93645,830.60329 C 523.22081,829.80117 522.66246,829.20001 522.2614,828.7998 C 520.54353,826.96749 519.5413,825.46414 519.2547,824.28975 C 519.11227,823.77424 519.04105,823.17307 519.04106,822.48626 C 519.04105,819.90949 520.07168,817.94827 522.13295,816.60262 C 523.4209,815.74371 524.93823,815.31425 526.68494,815.31422 C 528.14502,815.31425 529.36221,815.51435 530.33649,815.91451 C 531.2522,816.22998 531.9106,816.38769 532.31169,816.38767 C 533.0273,816.38769 533.60007,816.12993 534.02999,815.61437 C 534.08676,815.49993 534.15798,815.38546 534.24363,815.27097 L 535.23188,815.27097 L 533.51358,823.81791 z M 568.55984,827.3397 L 568.55984,830.17339 L 546.91397,830.17339 L 546.91397,827.3397 L 568.55984,827.3397 z M 568.55984,835.92858 L 568.55984,838.76358 L 546.91397,838.76358 L 546.91397,835.92858 L 568.55984,835.92858 z M 605.25755,834.08184 L 583.26828,834.08184 L 583.26828,831.67674 L 605.25755,831.67674 L 605.25755,834.08184 z M 620.44832,814.88432 L 620.79303,814.96951 L 620.79303,840.73878 C 620.79302,841.85548 621.122,842.57155 621.77997,842.88698 C 622.32433,843.11591 623.35539,843.24436 624.87318,843.27232 L 624.87318,843.91718 L 613.01939,843.91718 L 613.01939,843.27232 C 614.47948,843.24436 615.49569,843.05824 616.06803,842.71397 C 616.75569,842.31378 617.09953,841.38363 617.09954,839.92354 L 617.09954,820.46781 C 617.09953,819.1222 616.67006,818.44939 615.81114,818.44936 C 615.32356,818.44939 614.67914,818.60667 613.87789,818.92121 L 612.71794,819.39305 L 612.71794,818.79276 L 620.44832,814.88432 z" id="text5290" style="font-size:42.94834137px;font-style:normal;font-variant:normal;font-weight:normal;font-stretch:normal;text-align:center;text-anchor:middle;fill:#000000;fill-opacity:1;stroke:none;stroke-width:1px;stroke-linecap:butt;stroke-linejoin:miter;stroke-opacity:1;font-family:FreeSerif;-inkscape-font-specification:FreeSerif"/>
    <path d="M 213.37247,951.83572 L 211.05388,954.28407 L 212.12733,954.28407 C 212.12732,954.28407 212.21339,954.26965 212.38553,954.24082 L 214.74738,954.62747 C 215.43416,954.7996 216.14979,954.9713 216.89427,955.14257 C 219.55755,955.77256 221.31867,956.08756 222.17762,956.08757 C 224.38216,956.08756 226.2289,955.50081 227.71786,954.32732 C 228.26133,953.92625 228.83409,953.41072 229.43616,952.78072 L 230.0797,953.25388 C 229.13511,954.54183 228.23337,955.51523 227.37446,956.17407 C 225.3123,957.8063 223.06449,958.73688 220.63102,958.96582 C 220.3444,958.99464 220.07221,959.00906 219.81446,959.00907 C 218.23988,959.00906 216.06416,958.62241 213.28728,957.84912 C 211.39727,957.33358 210.06562,957.07581 209.29233,957.07582 C 207.60329,957.07581 205.95708,957.51969 204.35369,958.40747 L 203.92379,957.76261 C 206.07155,956.27368 208.09043,954.69912 209.98044,953.03893 C 210.26616,952.78116 210.78125,952.32286 211.52573,951.66402 C 209.89349,951.29179 208.57669,950.70504 207.57534,949.90378 C 205.1698,948.04262 203.96704,945.29369 203.96704,941.65699 C 203.96704,937.33351 205.61325,933.25336 208.90568,929.41655 C 209.50771,928.70094 210.15213,928.02813 210.83893,927.39811 C 214.53241,924.27784 218.11144,922.66046 221.57602,922.54597 C 224.81162,922.546 227.374,923.71949 229.26315,926.06645 C 230.69526,927.87085 231.41132,930.03259 231.41135,932.5517 C 231.41132,936.78957 229.95079,940.75525 227.02975,944.44873 C 225.25507,946.68213 223.15099,948.48606 220.71752,949.86053 C 218.85634,950.8916 216.85188,951.50718 214.70412,951.70728 L 213.37247,951.83572 z M 221.36107,923.96281 C 218.26872,923.96284 215.54862,925.66629 213.20078,929.07315 C 211.31164,931.73647 209.92319,935.02933 209.03544,938.95174 C 208.6632,940.58399 208.47708,942.02966 208.47709,943.28878 C 208.47708,946.83985 209.59378,949.08767 211.82718,950.03223 C 212.45717,950.28999 213.1728,950.41888 213.97408,950.41888 C 217.06639,950.41888 219.78648,948.72941 222.13437,945.35048 C 224.1956,942.40146 225.6273,938.86569 226.42946,934.74315 C 226.744,933.2254 226.90128,931.8221 226.90131,930.53325 C 226.90128,927.49861 225.89905,925.49459 223.89461,924.52116 C 223.15012,924.14896 222.30561,923.96284 221.36107,923.96281 L 221.36107,923.96281 z M 266.09848,934.57145 L 266.09848,937.40514 L 244.45261,937.40514 L 244.45261,934.57145 L 266.09848,934.57145 z M 266.09848,943.16034 L 266.09848,945.99533 L 244.45261,945.99533 L 244.45261,943.16034 L 266.09848,943.16034 z M 289.05242,922.11607 C 292.0591,922.1161 294.44978,923.66226 296.22445,926.75456 C 297.79987,929.47468 298.58759,932.88201 298.58761,936.97655 C 298.58759,941.18471 297.72822,944.70607 296.0095,947.54063 C 295.52279,948.34276 295.00769,949.0016 294.46421,949.51713 C 292.94643,951.00606 291.08527,951.75053 288.88072,951.75053 C 286.33275,951.75053 284.24265,950.77713 282.61043,948.83033 C 281.03586,946.96917 279.9764,944.13418 279.43203,940.32534 C 279.25989,939.09418 279.17382,937.89185 279.17383,936.71835 C 279.17382,932.68147 280.01877,929.23133 281.70868,926.36791 C 282.19537,925.5658 282.72489,924.89299 283.29722,924.34946 C 284.87178,922.86056 286.79017,922.1161 289.05242,922.11607 L 289.05242,922.11607 z M 288.92397,923.23277 C 285.40173,923.23279 283.52615,927.35575 283.29722,935.60165 C 283.29722,936.08836 283.29722,936.58948 283.29722,937.105 C 283.29722,946.12422 285.15838,950.63383 288.88072,950.63383 C 292.60303,950.63383 294.46419,946.10981 294.46421,937.06174 C 294.46419,928.90148 292.98968,924.34905 290.04067,923.40447 L 288.96722,923.23277 L 288.92397,923.23277 z" id="text5308" style="font-size:42.94834137px;font-style:normal;font-variant:normal;font-weight:normal;font-stretch:normal;text-align:end;text-anchor:end;fill:#000000;fill-opacity:1;stroke:none;stroke-width:1px;stroke-linecap:butt;stroke-linejoin:miter;stroke-opacity:1;font-family:FreeSerif;-inkscape-font-specification:FreeSerif"/>
    <path d="M 439.28841,951.83572 L 436.96982,954.28407 L 438.04327,954.28407 C 438.04326,954.28407 438.12932,954.26965 438.30147,954.24082 L 440.66332,954.62747 C 441.3501,954.7996 442.06573,954.9713 442.81021,955.14257 C 445.47349,955.77256 447.23461,956.08756 448.09356,956.08757 C 450.2981,956.08756 452.14484,955.50081 453.6338,954.32732 C 454.17727,953.92625 454.75003,953.41072 455.3521,952.78072 L 455.99564,953.25388 C 455.05105,954.54183 454.14931,955.51523 453.2904,956.17407 C 451.22824,957.8063 448.98043,958.73688 446.54696,958.96582 C 446.26033,958.99464 445.98815,959.00906 445.7304,959.00907 C 444.15582,959.00906 441.9801,958.62241 439.20322,957.84912 C 437.31321,957.33358 435.98156,957.07581 435.20827,957.07582 C 433.51923,957.07581 431.87302,957.51969 430.26963,958.40747 L 429.83973,957.76261 C 431.98749,956.27368 434.00637,954.69912 435.89637,953.03893 C 436.18209,952.78116 436.69719,952.32286 437.44167,951.66402 C 435.80942,951.29179 434.49263,950.70504 433.49128,949.90378 C 431.08574,948.04262 429.88298,945.29369 429.88298,941.65699 C 429.88298,937.33351 431.52919,933.25336 434.82162,929.41655 C 435.42365,928.70094 436.06807,928.02813 436.75487,927.39811 C 440.44835,924.27784 444.02738,922.66046 447.49196,922.54597 C 450.72756,922.546 453.28994,923.71949 455.17909,926.06645 C 456.6112,927.87085 457.32726,930.03259 457.32729,932.5517 C 457.32726,936.78957 455.86673,940.75525 452.94569,944.44873 C 451.17101,946.68213 449.06693,948.48606 446.63346,949.86053 C 444.77228,950.8916 442.76781,951.50718 440.62006,951.70728 L 439.28841,951.83572 z M 447.277,923.96281 C 444.18466,923.96284 441.46456,925.66629 439.11671,929.07315 C 437.22758,931.73647 435.83913,935.02933 434.95138,938.95174 C 434.57913,940.58399 434.39302,942.02966 434.39303,943.28878 C 434.39302,946.83985 435.50972,949.08767 437.74312,950.03223 C 438.37311,950.28999 439.08874,950.41888 439.89001,950.41888 C 442.98233,950.41888 445.70242,948.72941 448.0503,945.35048 C 450.11154,942.40146 451.54324,938.86569 452.3454,934.74315 C 452.65994,933.2254 452.81722,931.8221 452.81725,930.53325 C 452.81722,927.49861 451.81499,925.49459 449.81055,924.52116 C 449.06606,924.14896 448.22155,923.96284 447.277,923.96281 L 447.277,923.96281 z M 492.01442,934.57145 L 492.01442,937.40514 L 470.36855,937.40514 L 470.36855,934.57145 L 492.01442,934.57145 z M 492.01442,943.16034 L 492.01442,945.99533 L 470.36855,945.99533 L 470.36855,943.16034 L 492.01442,943.16034 z M 514.7534,938.86524 L 514.7534,929.41655 L 517.5884,929.41655 L 517.5884,938.86524 L 526.99384,938.86524 L 526.99384,941.70024 L 517.5884,941.70024 L 517.5884,951.14893 L 514.7534,951.14893 L 514.7534,941.70024 L 505.34797,941.70024 L 505.34797,938.86524 L 514.7534,938.86524 z M 540.79922,922.11607 L 541.14393,922.20126 L 541.14393,947.97053 C 541.14392,949.08723 541.4729,949.8033 542.13087,950.11873 C 542.67523,950.34766 543.70629,950.47611 545.22408,950.50407 L 545.22408,951.14893 L 533.37029,951.14893 L 533.37029,950.50407 C 534.83038,950.47611 535.84659,950.28999 536.41893,949.94572 C 537.10659,949.54553 537.45043,948.61539 537.45044,947.15529 L 537.45044,927.69956 C 537.45043,926.35396 537.02096,925.68114 536.16204,925.68112 C 535.67446,925.68114 535.03004,925.83842 534.22879,926.15296 L 533.06884,926.6248 L 533.06884,926.02451 L 540.79922,922.11607 z" id="text5324" style="font-size:42.94834137px;font-style:normal;font-variant:normal;font-weight:normal;font-stretch:normal;text-align:end;text-anchor:end;fill:#000000;fill-opacity:1;stroke:none;stroke-width:1px;stroke-linecap:butt;stroke-linejoin:miter;stroke-opacity:1;font-family:FreeSerif;-inkscape-font-specification:FreeSerif"/>
    <path d="M -64.1318,951.83572 L -66.450392,954.28407 L -65.376946,954.28407 C -65.376956,954.28407 -65.290888,954.26965 -65.118742,954.24082 L -62.756898,954.62747 C -62.070116,954.7996 -61.354485,954.9713 -60.610005,955.14257 C -57.946722,955.77256 -56.185608,956.08756 -55.326656,956.08757 C -53.122117,956.08756 -51.275371,955.50081 -49.786415,954.32732 C -49.242946,953.92625 -48.67018,953.41072 -48.068114,952.78072 L -47.42457,953.25388 C -48.369161,954.54183 -49.270908,955.51523 -50.129813,956.17407 C -52.191972,957.8063 -54.439785,958.73688 -56.873258,958.96582 C -57.159879,958.99464 -57.432063,959.00906 -57.689811,959.00907 C -59.264391,959.00906 -61.440116,958.62241 -64.216994,957.84912 C -66.107004,957.33358 -67.438653,957.07581 -68.211945,957.07582 C -69.90098,957.07581 -71.547192,957.51969 -73.150585,958.40747 L -73.580488,957.76261 C -71.432726,956.27368 -69.413845,954.69912 -67.523838,953.03893 C -67.238119,952.78116 -66.723023,952.32286 -65.978547,951.66402 C -67.610789,951.29179 -68.927583,950.70504 -69.928935,949.90378 C -72.334472,948.04262 -73.537238,945.29369 -73.537235,941.65699 C -73.537238,937.33351 -71.891026,933.25336 -68.598595,929.41655 C -67.996565,928.70094 -67.352148,928.02813 -66.665343,927.39811 C -62.971862,924.27784 -59.392837,922.66046 -55.928258,922.54597 C -52.692651,922.546 -50.130275,923.71949 -48.241124,926.06645 C -46.809017,927.87085 -46.09295,930.03259 -46.09292,932.5517 C -46.09295,936.78957 -47.553482,940.75525 -50.474521,944.44873 C -52.249205,946.68213 -54.35328,948.48606 -56.786753,949.86053 C -58.647935,950.8916 -60.652399,951.50718 -62.80015,951.70728 L -64.1318,951.83572 z M -56.143209,923.96281 C -59.235556,923.96284 -61.95565,925.66629 -64.303499,929.07315 C -66.192635,931.73647 -67.58108,935.02933 -68.468838,938.95174 C -68.841078,940.58399 -69.027195,942.02966 -69.027188,943.28878 C -69.027195,946.83985 -67.910497,949.08767 -65.677091,950.03223 C -65.047102,950.28999 -64.331472,950.41888 -63.530198,950.41888 C -60.437885,950.41888 -57.717791,948.72941 -55.369909,945.35048 C -53.30867,942.40146 -51.876972,938.86569 -51.074812,934.74315 C -50.760275,933.2254 -50.602993,931.8221 -50.602968,930.53325 C -50.602993,927.49861 -51.605225,925.49459 -53.609666,924.52116 C -54.354154,924.14896 -55.198667,923.96284 -56.143209,923.96281 L -56.143209,923.96281 z M -11.405792,934.57145 L -11.405792,937.40514 L -33.051662,937.40514 L -33.051662,934.57145 L -11.405792,934.57145 z M -11.405792,943.16034 L -11.405792,945.99533 L -33.051662,945.99533 L -33.051662,943.16034 L -11.405792,943.16034 z M 25.291925,941.31359 L 3.302657,941.31359 L 3.302657,938.90849 L 25.291925,938.90849 L 25.291925,941.31359 z M 40.482693,922.11607 L 40.827401,922.20126 L 40.827401,947.97053 C 40.827388,949.08723 41.156369,949.8033 41.814343,950.11873 C 42.358697,950.34766 43.389764,950.47611 44.907546,950.50407 L 44.907546,951.14893 L 33.053762,951.14893 L 33.053762,950.50407 C 34.513852,950.47611 35.530065,950.28999 36.102402,949.94572 C 36.790063,949.54553 37.133898,948.61539 37.133907,947.15529 L 37.133907,927.69956 C 37.133898,926.35396 36.704432,925.68114 35.845509,925.68112 C 35.357929,925.68114 34.713512,925.83842 33.912257,926.15296 L 32.752306,926.6248 L 32.752306,926.02451 L 40.482693,922.11607 z" id="text5334" style="font-size:42.94834137px;font-style:normal;font-variant:normal;font-weight:normal;font-stretch:normal;text-align:end;text-anchor:end;fill:#000000;fill-opacity:1;stroke:none;stroke-width:1px;stroke-linecap:butt;stroke-linejoin:miter;stroke-opacity:1;font-family:FreeSerif;-inkscape-font-specification:FreeSerif"/>
    <path d="M 253.9341,402.68743 L 253.9341,401.72194 L 267.25997,401.72194 L 267.25997,402.68743 C 265.25964,402.82302 263.75087,403.23022 262.73368,403.90903 L 261.10539,405.1803 C 260.69868,405.55287 260.17351,406.04441 259.52988,406.65492 L 249.86572,416.21664 L 261.71697,428.93248 C 264.32778,431.71304 266.09111,433.35788 267.00696,433.86701 C 267.68473,434.20643 268.58295,434.3927 269.70163,434.42582 L 269.70163,435.39285 L 254.18867,435.39285 L 254.18867,434.42582 C 254.59533,434.3927 255.07031,434.37614 255.61361,434.37614 C 257.0375,434.30785 257.74945,433.9348 257.74948,433.25699 C 257.74945,432.17147 256.18947,429.95023 253.06951,426.59328 C 252.45895,425.94963 251.81478,425.28838 251.13699,424.60953 L 245.7461,419.26987 L 244.42361,420.3378 L 244.42361,429.8483 C 244.4236,431.84964 244.74542,433.10435 245.38909,433.61245 C 245.96547,434.05328 247.16948,434.3244 249.00112,434.42582 L 249.00112,435.39285 L 234.65699,435.39285 L 234.65699,434.42582 C 236.72559,434.29026 238.01394,433.90065 238.52204,433.25699 C 238.99701,432.64645 239.23451,431.32395 239.23451,429.2895 L 239.23451,407.26494 C 239.23451,405.33297 238.91268,404.09533 238.26903,403.55202 L 237.35321,403.14533 C 236.77681,402.94151 235.87808,402.78887 234.65699,402.68743 L 234.65699,401.72194 L 249.10202,401.72194 L 249.10202,402.68743 C 246.89784,402.85717 245.54172,403.24729 245.03363,403.85781 L 244.67662,404.67117 L 244.42361,406.34913 C 244.4236,406.62132 244.4236,406.92659 244.42361,407.26494 L 244.42361,417.69281 L 253.42652,409.50326 C 256.07046,407.06215 257.39244,405.31589 257.39247,404.26449 C 257.39244,403.45115 256.88383,402.95962 255.86663,402.78987 C 255.69793,402.75576 255.49459,402.73868 255.2566,402.73865 C 254.7816,402.73868 254.34077,402.72161 253.9341,402.68743 L 253.9341,402.68743 z M 275.12722,404.64318 L 275.12722,404.4603 C 274.42927,404.89633 273.97568,405.21017 273.76646,405.40182 C 273.5748,405.55888 273.20852,405.95151 272.66762,406.57971 C 272.30134,406.99817 271.93506,407.2074 271.56879,407.20739 C 270.99275,407.12062 270.67864,406.81557 270.62647,406.29223 C 270.62647,405.78594 270.96666,405.43697 271.64705,405.2453 C 271.82167,405.19314 272.02237,405.14948 272.24917,405.11433 C 273.17338,404.93972 273.97568,404.65197 274.65607,404.25108 C 274.74337,404.19838 274.83947,404.13716 274.94435,404.0674 L 274.65607,403.88453 C 274.16787,403.55287 273.41774,403.29121 272.40569,403.09954 C 271.25468,402.89032 270.66161,402.48039 270.62647,401.86973 C 270.62647,401.41616 270.82718,401.11962 271.2286,400.98013 C 271.33294,400.945 271.42877,400.92744 271.51608,400.92742 C 271.88236,400.92744 272.30107,401.20667 272.77224,401.76512 C 273.50479,402.56743 274.25491,403.18659 275.02261,403.6226 C 275.05774,403.64018 275.09261,403.65775 275.12722,403.67531 L 275.12722,403.33511 C 275.12722,402.61961 274.99652,401.82583 274.73513,400.95377 C 274.5605,400.34315 274.47319,399.89834 274.47319,399.61936 C 274.47319,399.16579 274.68241,398.87777 275.10087,398.7553 C 275.18818,398.72072 275.28427,398.70341 275.38916,398.7034 C 275.82517,398.70341 276.12171,398.91264 276.27877,399.33107 C 276.31336,399.43597 276.33067,399.54937 276.33067,399.67127 C 276.33067,399.91565 276.24362,400.31706 276.06954,400.87551 C 275.773,401.71243 275.62473,402.4362 275.62473,403.04683 L 275.62473,403.72721 L 275.80761,403.6226 C 276.40067,403.29147 277.02862,402.73327 277.69144,401.94799 C 278.30207,401.23302 278.79053,400.87553 279.15682,400.87551 C 279.64553,400.87553 279.95085,401.11084 280.07278,401.58145 C 280.09034,401.68634 280.09912,401.79122 280.09913,401.89609 C 280.09912,402.40186 279.82867,402.73327 279.28778,402.89031 C 279.13072,402.92493 278.95637,402.9598 278.76472,402.99492 C 277.8751,403.13442 277.02036,403.43096 276.20051,403.88453 L 275.83396,404.09376 L 276.04319,404.22472 C 276.75817,404.66076 277.60412,404.95729 278.58105,405.11433 C 279.47118,405.25383 279.97721,405.53306 280.09913,405.95203 L 280.12549,406.26587 C 280.12548,406.80678 279.8899,407.12062 279.41875,407.20739 L 279.20952,407.23374 C 278.77349,407.23375 278.25016,406.85869 277.63953,406.10855 C 276.95914,405.2887 276.3485,404.76537 275.80761,404.53856 L 275.62473,404.4603 L 275.62473,404.64318 C 275.62473,405.65524 275.79908,406.63216 276.1478,407.57393 C 276.28728,407.94022 276.35702,408.21946 276.35703,408.41164 C 276.35702,408.86523 276.14779,409.18786 275.72935,409.37951 C 275.60689,409.43169 275.47593,409.45777 275.33645,409.45777 C 274.93556,409.45777 274.65659,409.25733 274.49955,408.85644 C 274.44684,408.734 274.42048,408.61182 274.42049,408.4899 C 274.42048,408.1758 274.51658,407.77465 274.70877,407.28645 C 275.0053,406.5012 275.15357,405.8469 275.15358,405.32356 C 275.15357,405.23626 275.15357,405.15773 275.15358,405.08798 L 275.12722,404.64318 z M 288.42026,404.68377 L 288.42026,398.92686 L 290.14757,398.92686 L 290.14757,404.68377 L 295.87812,404.68377 L 295.87812,406.41108 L 290.14757,406.41108 L 290.14757,412.16798 L 288.42026,412.16798 L 288.42026,406.41108 L 282.6897,406.41108 L 282.6897,404.68377 L 288.42026,404.68377 z" id="text5512" style="font-size:50.86338043px;font-style:normal;font-variant:normal;font-weight:normal;font-stretch:normal;text-align:center;text-anchor:middle;fill:#000000;fill-opacity:1;stroke:none;stroke-width:1px;stroke-linecap:butt;stroke-linejoin:miter;stroke-opacity:1;font-family:FreeSerif;-inkscape-font-specification:FreeSerif"/>
    <path d="M 254.29422,837.81917 L 254.29422,836.85369 L 267.62009,836.85369 L 267.62009,837.81917 C 265.61975,837.95476 264.11099,838.36196 263.09379,839.04077 L 261.46551,840.31205 C 261.0588,840.68461 260.53363,841.17615 259.89,841.78666 L 250.22583,851.34838 L 262.07709,864.06423 C 264.6879,866.84479 266.45123,868.48963 267.36708,868.99876 C 268.04485,869.33818 268.94307,869.52445 270.06174,869.55756 L 270.06174,870.5246 L 254.54878,870.5246 L 254.54878,869.55756 C 254.95545,869.52445 255.43043,869.50789 255.97373,869.50789 C 257.39761,869.43959 258.10957,869.06654 258.10959,868.38873 C 258.10957,867.30321 256.54958,865.08198 253.42963,861.72502 C 252.81907,861.08137 252.17489,860.42013 251.4971,859.74127 L 246.10622,854.40161 L 244.78372,855.46955 L 244.78372,864.98004 C 244.78371,866.98138 245.10554,868.2361 245.74921,868.74419 C 246.32559,869.18503 247.5296,869.45615 249.36124,869.55756 L 249.36124,870.5246 L 235.01711,870.5246 L 235.01711,869.55756 C 237.08571,869.422 238.37405,869.03239 238.88215,868.38873 C 239.35713,867.77819 239.59462,866.4557 239.59463,864.42124 L 239.59463,842.39669 C 239.59462,840.46471 239.27279,839.22707 238.62914,838.68376 L 237.71333,838.27708 C 237.13693,838.07325 236.23819,837.92062 235.01711,837.81917 L 235.01711,836.85369 L 249.46213,836.85369 L 249.46213,837.81917 C 247.25796,837.98891 245.90183,838.37904 245.39375,838.98955 L 245.03673,839.80292 L 244.78372,841.48087 C 244.78371,841.75306 244.78371,842.05833 244.78372,842.39669 L 244.78372,852.82455 L 253.78664,844.635 C 256.43058,842.19389 257.75256,840.44764 257.75258,839.39623 C 257.75256,838.5829 257.24394,838.09136 256.22674,837.92162 C 256.05804,837.8875 255.8547,837.87043 255.61672,837.87039 C 255.14171,837.87043 254.70088,837.85335 254.29422,837.81917 L 254.29422,837.81917 z M 275.48734,839.77492 L 275.48734,839.59205 C 274.78938,840.02808 274.33579,840.34192 274.12657,840.53356 C 273.93491,840.69063 273.56863,841.08326 273.02774,841.71146 C 272.66146,842.12992 272.29518,842.33914 271.9289,842.33913 C 271.35286,842.25237 271.03876,841.94731 270.98659,841.42397 C 270.98659,840.91769 271.32678,840.56871 272.00716,840.37704 C 272.18178,840.32488 272.38249,840.28123 272.60929,840.24608 C 273.5335,840.07147 274.33579,839.78372 275.01618,839.38282 C 275.10349,839.33013 275.19958,839.2689 275.30447,839.19915 L 275.01618,839.01628 C 274.52798,838.68462 273.77786,838.42295 272.76581,838.23128 C 271.6148,838.02207 271.02172,837.61213 270.98659,837.00148 C 270.98659,836.54791 271.18729,836.25137 271.58871,836.11187 C 271.69306,836.07675 271.78888,836.05918 271.8762,836.05916 C 272.24247,836.05918 272.66119,836.33841 273.13235,836.89687 C 273.8649,837.69918 274.61503,838.31834 275.38273,838.75434 C 275.41786,838.77193 275.45273,838.78949 275.48734,838.80705 L 275.48734,838.46686 C 275.48733,837.75135 275.35663,836.95757 275.09524,836.08552 C 274.92061,835.47489 274.8333,835.03009 274.83331,834.7511 C 274.8333,834.29753 275.04253,834.00951 275.46099,833.88705 C 275.54829,833.85246 275.64439,833.83516 275.74927,833.83514 C 276.18528,833.83516 276.48182,834.04438 276.63888,834.46282 C 276.67348,834.56772 276.69078,834.68111 276.69079,834.80301 C 276.69078,835.04739 276.60374,835.44881 276.42965,836.00726 C 276.13311,836.84418 275.98484,837.56795 275.98485,838.17857 L 275.98485,838.85896 L 276.16772,838.75434 C 276.76079,838.42322 277.38873,837.86502 278.05155,837.07974 C 278.66219,836.36477 279.15065,836.00727 279.51693,836.00726 C 280.00565,836.00727 280.31097,836.24259 280.4329,836.71319 C 280.45045,836.81809 280.45924,836.92297 280.45925,837.02783 C 280.45924,837.53361 280.18879,837.86502 279.6479,838.02205 C 279.49084,838.05667 279.31648,838.09154 279.12483,838.12667 C 278.23522,838.26616 277.38048,838.5627 276.56062,839.01628 L 276.19408,839.2255 L 276.4033,839.35647 C 277.11828,839.7925 277.96423,840.08904 278.94116,840.24608 C 279.83129,840.38557 280.33732,840.66481 280.45925,841.08378 L 280.4856,841.39762 C 280.48559,841.93853 280.25001,842.25237 279.77887,842.33913 L 279.56964,842.36549 C 279.13361,842.3655 278.61028,841.99043 277.99965,841.2403 C 277.31926,840.42044 276.70861,839.89711 276.16772,839.67031 L 275.98485,839.59205 L 275.98485,839.77492 C 275.98484,840.78699 276.1592,841.76391 276.50791,842.70568 C 276.64739,843.07197 276.71713,843.3512 276.71714,843.54338 C 276.71713,843.99698 276.50791,844.3196 276.08946,844.51125 C 275.96701,844.56343 275.83604,844.58952 275.69657,844.58951 C 275.29568,844.58952 275.01671,844.38908 274.85966,843.98819 C 274.80695,843.86575 274.7806,843.74356 274.7806,843.62164 C 274.7806,843.30754 274.87669,842.9064 275.06889,842.41819 C 275.36542,841.63294 275.51369,840.97864 275.51369,840.4553 C 275.51369,840.368 275.51369,840.28948 275.51369,840.21972 L 275.48734,839.77492 z M 290.75767,832.61661 C 293.80934,832.61664 296.03057,834.10885 297.42138,837.09323 C 298.03191,838.41576 298.42152,839.92452 298.59021,841.61953 C 298.62434,842.1618 298.64142,842.70456 298.64143,843.24781 C 298.64142,847.01147 297.60712,849.8598 295.53853,851.79282 C 295.36984,851.96152 295.18357,852.13071 294.97973,852.3004 C 293.58892,853.35179 292.18157,853.87748 290.75767,853.87747 C 288.96018,853.87748 287.28171,853.1826 285.72224,851.79282 C 283.89165,849.96121 282.94221,847.0451 282.87391,843.04447 C 282.87391,838.70344 284.04377,835.7361 286.38349,834.14245 C 287.94296,833.12526 289.40102,832.61664 290.75767,832.61661 L 290.75767,832.61661 z M 290.75767,834.04155 C 288.35068,834.04159 287.01162,836.4998 286.74051,841.41619 C 286.70635,842.02675 286.68928,842.65385 286.68928,843.29749 C 286.68928,848.65579 287.77428,851.67384 289.9443,852.35163 C 290.21542,852.41994 290.48654,852.45409 290.75767,852.45407 C 292.6224,852.45409 293.75863,850.40256 294.16636,846.29949 C 294.26776,845.3837 294.31847,844.38303 294.31848,843.29749 C 294.31847,837.60084 293.33487,834.53209 291.36769,834.09123 C 291.16486,834.05814 290.96152,834.04159 290.75767,834.04155 L 290.75767,834.04155 z" id="text5521" style="font-size:50.86338043px;font-style:normal;font-variant:normal;font-weight:normal;font-stretch:normal;text-align:center;text-anchor:middle;fill:#000000;fill-opacity:1;stroke:none;stroke-width:1px;stroke-linecap:butt;stroke-linejoin:miter;stroke-opacity:1;font-family:FreeSerif;-inkscape-font-specification:FreeSerif"/>
    <path d="M 4.7944866,837.81917 L 4.7944866,836.85369 L 18.120357,836.85369 L 18.120357,837.81917 C 16.120021,837.95476 14.611258,838.36196 13.594063,839.04077 L 11.965776,840.31205 C 11.559065,840.68461 11.033895,841.17615 10.390266,841.78666 L 0.72609919,851.34838 L 12.577354,864.06423 C 15.188168,866.84479 16.951497,868.48963 17.867344,868.99876 C 18.545115,869.33818 19.443336,869.52445 20.56201,869.55756 L 20.56201,870.5246 L 5.0490519,870.5246 L 5.0490519,869.55756 C 5.4557138,869.52445 5.9306948,869.50789 6.4739965,869.50789 C 7.8978821,869.43959 8.6098362,869.06654 8.6098611,868.38873 C 8.6098362,867.30321 7.0498495,865.08198 3.9298961,861.72502 C 3.3193339,861.08137 2.6751602,860.42013 1.9973733,859.74127 L -3.3935118,854.40161 L -4.7160093,855.46955 L -4.7160093,864.98004 C -4.7160208,866.98138 -4.3941927,868.2361 -3.750524,868.74419 C -3.1741434,869.18503 -1.9701337,869.45615 -0.13849135,869.55756 L -0.13849135,870.5246 L -14.482623,870.5246 L -14.482623,869.55756 C -12.414025,869.422 -11.125678,869.03239 -10.617577,868.38873 C -10.142602,867.77819 -9.9051111,866.4557 -9.9051048,864.42124 L -9.9051048,842.39669 C -9.9051111,840.46471 -10.226939,839.22707 -10.87059,838.68376 L -11.786404,838.27708 C -12.362802,838.07325 -13.26154,837.92062 -14.482623,837.81917 L -14.482623,836.85369 L -0.037596582,836.85369 L -0.037596582,837.81917 C -2.2417732,837.98891 -3.597901,838.37904 -4.105984,838.98955 L -4.4629963,839.80292 L -4.7160093,841.48087 C -4.7160208,841.75306 -4.7160208,842.05833 -4.7160093,842.39669 L -4.7160093,852.82455 L 4.2869084,844.635 C 6.9308455,842.19389 8.2528244,840.44764 8.2528488,839.39623 C 8.2528244,838.5829 7.7442118,838.09136 6.7270095,837.92162 C 6.5583114,837.8875 6.3549698,837.87043 6.1169842,837.87039 C 5.6419808,837.87043 5.2011488,837.85335 4.7944866,837.81917 L 4.7944866,837.81917 z M 25.987608,839.77492 L 25.987608,839.59205 C 25.289651,840.02808 24.836062,840.34192 24.626842,840.53356 C 24.43518,840.69063 24.068902,841.08326 23.528007,841.71146 C 23.161725,842.12992 22.795447,842.33914 22.429172,842.33913 C 21.853133,842.25237 21.539028,841.94731 21.486857,841.42397 C 21.486855,840.91769 21.827046,840.56871 22.507432,840.37704 C 22.68205,840.32488 22.882757,840.28123 23.109555,840.24608 C 24.033765,840.07147 24.836062,839.78372 25.516451,839.38282 C 25.603755,839.33013 25.69985,839.2689 25.804735,839.19915 L 25.516451,839.01628 C 25.028252,838.68462 24.278127,838.42295 23.266075,838.23128 C 22.115064,838.02207 21.521992,837.61213 21.486857,837.00148 C 21.486855,836.54791 21.687562,836.25137 22.08898,836.11187 C 22.193324,836.07675 22.289153,836.05918 22.376466,836.05916 C 22.742741,836.05918 23.161459,836.33841 23.63262,836.89687 C 24.365172,837.69918 25.115296,838.31834 25.882995,838.75434 C 25.918126,838.77193 25.952997,838.78949 25.987608,838.80705 L 25.987608,838.46686 C 25.987602,837.75135 25.856903,836.95757 25.595509,836.08552 C 25.420883,835.47489 25.333572,835.03009 25.333578,834.7511 C 25.333572,834.29753 25.542798,834.00951 25.961255,833.88705 C 26.04856,833.85246 26.144654,833.83516 26.24954,833.83514 C 26.685553,833.83516 26.982089,834.04438 27.139149,834.46282 C 27.173746,834.56772 27.191049,834.68111 27.191056,834.80301 C 27.191049,835.04739 27.104004,835.44881 26.929923,836.00726 C 26.63338,836.84418 26.485112,837.56795 26.485119,838.17857 L 26.485119,838.85896 L 26.667992,838.75434 C 27.261057,838.42322 27.889,837.86502 28.551823,837.07974 C 29.162455,836.36477 29.650914,836.00727 30.017202,836.00726 C 30.505918,836.00727 30.811238,836.24259 30.933165,836.71319 C 30.950722,836.81809 30.959506,836.92297 30.959517,837.02783 C 30.959506,837.53361 30.689057,837.86502 30.148168,838.02205 C 29.991105,838.05667 29.816751,838.09154 29.625104,838.12667 C 28.735485,838.26616 27.880748,838.5627 27.060889,839.01628 L 26.694344,839.2255 L 26.90357,839.35647 C 27.618551,839.7925 28.464504,840.08904 29.441432,840.24608 C 30.331563,840.38557 30.837591,840.66481 30.959517,841.08378 L 30.98587,841.39762 C 30.985859,841.93853 30.75028,842.25237 30.279134,842.33913 L 30.069908,842.36549 C 29.633878,842.3655 29.110548,841.99043 28.499916,841.2403 C 27.819524,840.42044 27.208883,839.89711 26.667992,839.67031 L 26.485119,839.59205 L 26.485119,839.77492 C 26.485112,840.78699 26.659467,841.76391 27.008183,842.70568 C 27.14766,843.07197 27.217402,843.3512 27.217409,843.54338 C 27.217402,843.99698 27.008176,844.3196 26.589732,844.51125 C 26.467277,844.56343 26.336311,844.58952 26.196834,844.58951 C 25.795945,844.58952 25.516977,844.38908 25.359931,843.98819 C 25.307219,843.86575 25.280866,843.74356 25.280872,843.62164 C 25.280866,843.30754 25.376961,842.9064 25.569157,842.41819 C 25.865687,841.63294 26.013955,840.97864 26.013961,840.4553 C 26.013955,840.368 26.013955,840.28948 26.013961,840.21972 L 25.987608,839.77492 z M 47.785431,840.2511 L 34.387789,840.2511 L 34.387789,838.78572 L 47.785431,838.78572 L 47.785431,840.2511 z" id="text5527" style="font-size:50.86338043px;font-style:normal;font-variant:normal;font-weight:normal;font-stretch:normal;text-align:center;text-anchor:middle;fill:#000000;fill-opacity:1;stroke:none;stroke-width:1px;stroke-linecap:butt;stroke-linejoin:miter;stroke-opacity:1;font-family:FreeSerif;-inkscape-font-specification:FreeSerif"/>
  </g>
</svg>